<svg width="59" height="41" viewBox="0 0 59 41" fill="none" xmlns="http://www.w3.org/2000/svg">
<path fill-rule="evenodd" clip-rule="evenodd" d="M56.7938 5.27023C57.9031 6.38707 58.6666 7.85202 58.9115 9.48619C59.0028 10.1147 58.998 10.6562 58.998 11.2751V21.4717C58.998 22.0229 59.0124 22.5692 58.9644 23.1204C58.7531 25.4024 57.4853 27.5055 55.5741 28.7481C53.1539 30.3291 50.3879 29.9665 47.4922 29.9665C48.4478 32.6159 50.3735 35.0624 52.4528 36.9141L51.6748 38.3839L51.6508 38.3742C46.6135 37.0688 41.3024 34.0712 38.0658 29.9616C36.0633 29.9423 34.4258 29.9665 32.4282 29.6957C30.2288 31.0398 27.6117 31.9149 25.0282 31.9149C23.3522 34.018 21.4026 35.8166 19.1745 37.2912C16.7686 38.8819 14.0506 40.0906 11.0205 40.8931C10.8717 40.9318 10.7228 40.9705 10.5692 40.9898C10.0457 41.0479 9.49829 40.8593 9.12373 40.4338C8.50907 39.7376 8.57629 38.6691 9.26779 38.0503C11.227 36.3049 12.3219 34.3903 13.1046 31.9246C9.2822 31.9246 6.08402 32.3307 2.97228 29.2026C-0.912586 25.2864 0.0526289 16.1824 0.249514 10.7191C0.31194 8.96403 0.191889 7.80851 0.888188 5.97611C1.79098 3.58771 3.66378 1.65862 6.0312 0.701327C8.24495 -0.197949 10.6508 0.0244529 12.9846 0.0244529H27.1747C28.2167 0.0244529 29.0667 0.0196181 30.1328 0.271028C31.9287 0.686823 33.5566 1.64895 34.8292 3.04621L51.2138 3.05105C53.3796 3.05105 55.238 3.69891 56.7938 5.27023ZM47.9772 20.6885H43.6698L43.0743 22.8448H39.2135C40.5052 19.1703 41.8018 15.491 43.0935 11.8117C43.5593 10.4822 44.0876 8.28232 45.7827 8.28232C47.5402 8.28232 48.1213 10.2984 48.6111 11.6909L52.5392 22.8399H48.5823L47.9772 20.6885ZM47.1849 17.8601L45.8307 13.1606L44.4861 17.8601H47.1849ZM39.9194 34.6466L37.1198 32.3162L33.6239 36.6627L28.5481 32.2292L26.1519 34.956L31.6502 39.3605L32.9925 40.1752L34.3348 40.9898L36.1065 38.9737L39.9194 34.6466ZM36.798 4.76741C38.4403 11.2025 40.1931 22.5063 35.7848 28.2308C36.8268 28.2453 37.8545 28.2453 38.8965 28.2453C41.2591 31.4072 44.2941 33.6167 47.8668 35.2316C48.2029 35.3815 48.5439 35.5313 48.8848 35.6667C47.6699 34.1873 46.6038 32.4806 45.9268 30.6723C45.6146 29.8359 45.4465 29.101 45.2353 28.2453C46.2149 28.2453 47.1753 28.2549 48.1597 28.2888C50.3351 28.3661 52.6256 28.429 54.436 27.4088C55.2188 26.9689 55.8478 26.3452 56.3424 25.5958C56.7794 24.9237 57.0868 24.155 57.2212 23.3379C57.3221 22.7191 57.2884 22.0374 57.2884 21.4088V10.9415C57.2884 10.6659 57.2932 10.4145 57.274 10.1389C57.1636 8.72228 56.5393 7.43622 55.5885 6.47893C54.6665 5.54581 53.4324 4.92696 52.0686 4.79158C51.718 4.75774 51.3723 4.76257 51.0217 4.76257L36.798 4.76741ZM10.1754 6.52244H16.6294V4.69005H19.5106V6.52244H25.9886V9.5297H24.6584C24.5528 10.3758 24.3559 11.217 24.087 12.0486H24.0918C23.818 12.8947 23.4435 13.7457 22.9969 14.5869C22.2382 16.0132 21.2585 17.3814 20.1253 18.6965C21.9404 20.8818 24.1878 22.7819 26.8722 24.5128L25.3883 26.8383C22.5743 25.0204 20.1829 23.0188 18.2188 20.7126C16.4613 22.4242 14.4684 24.0196 12.3747 25.4749L10.8141 23.2026C12.8837 21.7618 14.8478 20.1856 16.5381 18.5079C14.9774 16.2114 13.7865 13.6345 12.9606 10.6707L15.6065 9.92615C16.2836 12.3581 17.2344 14.4951 18.4541 16.4096C19.2849 15.3943 20.0052 14.3548 20.5767 13.2864C20.9368 12.6095 21.2441 11.9036 21.4794 11.1832H21.4842C21.6619 10.6465 21.7964 10.0905 21.8876 9.5297H10.1754V6.52244Z" fill="#EDA288" fill-opacity="0.5"/>
</svg>
