<svg width="42" height="63" viewBox="0 0 42 63" fill="none" xmlns="http://www.w3.org/2000/svg">
<path d="M6.29647 30.105L20.1235 51.839C20.2085 51.9728 20.326 52.083 20.465 52.1593C20.6039 52.2357 20.7599 52.2757 20.9185 52.2757C21.077 52.2757 21.233 52.2357 21.372 52.1593C21.511 52.083 21.6284 51.9728 21.7135 51.839L35.5395 30.105C35.5567 30.0779 35.5724 30.0499 35.5865 30.021C37.904 26.9007 39.1529 23.1158 39.1475 19.229C39.1475 14.3944 37.2269 9.75776 33.8083 6.33915C30.3897 2.92055 25.7531 1 20.9185 1C16.0839 1 11.4472 2.92055 8.02862 6.33915C4.61002 9.75776 2.68947 14.3944 2.68947 19.229C2.68395 23.1138 3.93174 26.8968 6.24747 30.016C6.26205 30.0466 6.27841 30.0763 6.29647 30.105ZM20.9185 2.883C25.2521 2.88803 29.4067 4.61184 32.4709 7.67625C35.5352 10.7407 37.2587 14.8954 37.2635 19.229C37.2674 22.7674 36.1117 26.2097 33.9735 29.029C33.9254 29.0928 33.886 29.1627 33.8565 29.237L20.9185 49.579L7.98547 29.25C7.95467 29.1726 7.91364 29.0996 7.86347 29.033C5.72522 26.2137 4.5696 22.7714 4.57347 19.233C4.57718 14.8987 6.30027 10.7429 9.3646 7.67767C12.4289 4.61239 16.5842 2.88804 20.9185 2.883Z" fill="#EDA288" fill-opacity="0.5"/>
<path d="M5.87461 30.3734L5.87328 30.3713C5.85441 30.3413 5.8367 30.3106 5.82019 30.2792C3.45694 27.0804 2.1839 23.2064 2.18947 19.2286M5.87461 30.3734L35.5865 30.021C37.904 26.9007 39.1529 23.1158 39.1475 19.229H39.6475C39.6475 19.2288 39.6475 19.2285 39.6475 19.2283C39.6473 14.2613 37.674 9.4978 34.1618 5.98559C30.6495 2.47322 25.8857 0.5 20.9185 0.5C15.9513 0.5 11.1874 2.47322 7.67507 5.98559C4.16278 9.49789 2.18956 14.2616 2.18947 19.2286M5.87461 30.3734L19.7015 52.1071L5.87461 30.3734ZM2.18947 19.2286C2.18947 19.2285 2.18947 19.2284 2.18947 19.2283L2.68947 19.229H2.18947C2.18947 19.2289 2.18947 19.2288 2.18947 19.2286ZM35.9616 30.3729C35.9796 30.3447 35.9965 30.3157 36.0125 30.2859L20.465 52.1593C20.6039 52.2357 20.7599 52.2757 20.9185 52.2757C21.077 52.2757 21.233 52.2357 21.372 52.1593L21.6126 52.5976C21.6127 52.5976 21.6128 52.5975 21.6128 52.5975C21.8257 52.4806 22.0053 52.3119 22.1354 52.1073L35.9614 30.3734L35.9616 30.3729ZM33.5751 28.7269L33.5742 28.728C33.5099 28.8133 33.4554 28.9059 33.4121 29.0041L20.9184 48.6474L8.4299 29.0171C8.38541 28.9161 8.32936 28.8205 8.26284 28.7322L8.26185 28.7309C6.18965 25.9986 5.06972 22.6627 5.07347 19.2335V19.2334C5.07707 15.0316 6.74751 11.0027 9.71821 8.03117L9.71821 8.03116C12.6887 5.05968 16.7168 3.38804 20.9185 3.383C25.1195 3.38803 29.1469 5.05915 32.1173 8.02979L32.4709 7.67625L32.1173 8.02979C35.088 11.0006 36.7588 15.0284 36.7635 19.2295C36.7673 22.6586 35.6473 25.9946 33.5751 28.7269Z" stroke="#EDA288" stroke-opacity="0.5"/>
<path d="M29.674 50.197C29.425 50.1766 29.178 50.2559 28.9875 50.4176C28.7969 50.5792 28.6784 50.81 28.658 51.059C28.6376 51.308 28.7169 51.555 28.8786 51.7455C29.0402 51.9361 29.271 52.0546 29.52 52.075C35.426 52.56 38.952 53.881 38.952 55.607C38.952 56.886 32.586 59.374 20.918 59.374C9.25 59.374 2.884 56.886 2.884 55.607C2.884 54.785 3.784 52.795 12.165 52.087C12.4108 52.0619 12.6368 51.9413 12.7945 51.7512C12.9522 51.561 13.0289 51.3165 13.008 51.0704C12.9872 50.8242 12.8705 50.5961 12.683 50.4352C12.4956 50.2742 12.2525 50.1934 12.006 50.21C4.6 50.836 1 52.602 1 55.61C1 59.49 11.325 61.258 20.918 61.258C30.511 61.258 40.836 59.49 40.836 55.607C40.836 52.584 37.185 50.814 29.674 50.197Z" fill="#EDA288" fill-opacity="0.5"/>
<path d="M29.7148 49.6987L29.7149 49.6987C33.489 50.0087 36.3538 50.6114 38.2897 51.5498C40.2428 52.4965 41.336 53.836 41.336 55.607C41.336 56.8298 40.5181 57.8006 39.3414 58.5499C38.1569 59.3041 36.506 59.9051 34.5935 60.3742C30.7606 61.3145 25.7378 61.758 20.918 61.758C16.0982 61.758 11.0754 61.3145 7.24255 60.3746C5.33008 59.9057 3.67924 59.305 2.49473 58.5512C1.31806 57.8024 0.5 56.8322 0.5 55.61C0.5 53.8491 1.57723 52.5139 3.50552 51.5679C5.41589 50.6306 8.24207 50.0264 11.9639 49.7118L11.9724 49.7111L11.9724 49.7111C12.3495 49.6857 12.7217 49.8093 13.0086 50.0558C13.0087 50.0558 13.0088 50.0559 13.0088 50.0559L12.683 50.4352C12.8705 50.5961 12.9872 50.8242 13.008 51.0704L29.7148 49.6987ZM29.7148 49.6987C29.3339 49.6675 28.9558 49.7887 28.6642 50.0362C28.3723 50.2837 28.1909 50.637 28.1597 51.0182C28.1285 51.3992 28.2498 51.7773 28.4974 52.0691C28.7448 52.3608 29.0981 52.5421 29.4791 52.5733L29.7148 49.6987Z" stroke="#EDA288" stroke-opacity="0.5"/>
<path d="M21 25.2581C24.866 25.2581 28 22.1241 28 18.2581C28 14.3921 24.866 11.2581 21 11.2581C17.134 11.2581 14 14.3921 14 18.2581C14 22.1241 17.134 25.2581 21 25.2581Z" stroke="#EDA288" stroke-opacity="0.5" stroke-width="3"/>
</svg>
