<svg width="47" height="46" viewBox="0 0 47 46" fill="none" xmlns="http://www.w3.org/2000/svg">
<g clip-path="url(#clip0_1_311)">
<path d="M7.12825 45.8495H35.8783C37.6602 45.8445 39.3674 45.1327 40.6249 43.8704C41.8826 42.6078 42.5881 40.8982 42.5866 39.1163V24.6703C42.5866 24.162 42.3846 23.6744 42.0252 23.3151C41.6658 22.9557 41.1782 22.7537 40.6699 22.7537C40.1616 22.7537 39.674 22.9557 39.3146 23.3151C38.9553 23.6744 38.7533 24.162 38.7533 24.6703V39.1163C38.7557 39.8818 38.4544 40.6172 37.9155 41.1608C37.3765 41.7045 36.6438 42.0121 35.8783 42.0162H7.12825C6.36268 42.0121 5.63 41.7045 5.09099 41.1608C4.55201 40.6172 4.25071 39.8818 4.25325 39.1163V10.4161C4.25071 9.65054 4.55201 8.91523 5.09099 8.37155C5.63 7.82786 6.36268 7.52026 7.12825 7.51619H21.5033C22.0116 7.51619 22.4992 7.31425 22.8585 6.95482C23.2179 6.59537 23.4199 6.10787 23.4199 5.59953C23.4199 5.09119 23.2179 4.60369 22.8585 4.24423C22.4992 3.8848 22.0116 3.68286 21.5033 3.68286H7.12825C5.34635 3.68794 3.63923 4.39975 2.38155 5.66209C1.12388 6.92444 0.418394 8.63419 0.419924 10.4161V39.1163C0.418394 40.8982 1.12388 42.6078 2.38155 43.8704C3.63923 45.1327 5.34635 45.8445 7.12825 45.8495Z" fill="#EDA288"/>
<path d="M18.5415 20.0589L17.0293 26.9857C16.9608 27.2999 16.9725 27.6263 17.0633 27.9347C17.1541 28.2432 17.321 28.5238 17.5487 28.751C17.7795 28.9723 18.0603 29.1347 18.3673 29.2244C18.6742 29.3143 18.9983 29.3286 19.312 29.2665L26.2236 27.7505C26.5824 27.6717 26.9111 27.4913 27.1704 27.231L44.6389 9.7625C45.1729 9.22856 45.5965 8.59464 45.8855 7.89695C46.1745 7.19927 46.3233 6.45148 46.3233 5.6963C46.3233 4.94111 46.1745 4.19332 45.8855 3.49564C45.5965 2.79795 45.1729 2.16403 44.6389 1.63009C43.5441 0.583851 42.088 0 40.5736 0C39.0593 0 37.6032 0.583851 36.5084 1.63009L19.0667 19.1158C18.8049 19.3733 18.6226 19.7007 18.5415 20.0589ZM39.2186 4.34217C39.5831 3.99284 40.0686 3.79784 40.5736 3.79784C41.0787 3.79784 41.564 3.99284 41.9287 4.34217C42.2833 4.70371 42.4819 5.18991 42.4819 5.6963C42.4819 6.2027 42.2833 6.68888 41.9287 7.05042L40.5736 8.4055L37.8635 5.69534L39.2186 4.34217ZM22.1602 21.4274L35.1437 8.41125L37.8271 11.108L24.8378 24.128L21.3974 24.8831L22.1602 21.4274Z" fill="#EDA288"/>
</g>
<defs>
<clipPath id="clip0_1_311">
<rect width="46" height="46" fill="white" transform="translate(0.419922)"/>
</clipPath>
</defs>
</svg>
