<svg width="46" height="46" viewBox="0 0 46 46" fill="none" xmlns="http://www.w3.org/2000/svg">
<path d="M38.4933 5.32162C34.9198 2.45948 30.6088 0.667622 26.0592 0.153412C21.5096 -0.360797 16.9074 0.423669 12.7851 2.41602C9.70597 4.00444 7.008 6.24154 4.87705 8.97315C2.74611 11.7047 1.2329 14.8658 0.441742 18.2386C-0.212634 21.3598 -0.139031 24.5899 0.656838 27.6781C1.45271 30.7663 2.94944 33.6297 5.03093 36.0462C3.73023 37.4697 2.55123 38.9997 1.50632 40.6203C-0.0186165 43.0368 -0.349499 44.6048 0.470514 45.4247C0.622013 45.5673 0.800802 45.6777 0.996122 45.7494C1.19143 45.821 1.39924 45.8525 1.60702 45.8418C3.50965 45.5004 5.28437 44.6505 6.74289 43.3821C7.82186 42.591 8.9152 41.6848 9.92226 40.7786C11.732 42.1743 13.6967 43.3569 15.7775 44.3027C17.9369 45.2973 20.2654 45.8733 22.6396 46C23.0196 45.998 23.3991 45.9739 23.7762 45.9281C24.7398 45.8549 25.6505 45.4586 26.3607 44.8033C27.0709 44.148 27.539 43.2722 27.6892 42.3177C27.8412 40.9127 27.5387 39.496 26.8261 38.2757C26.223 37.2838 25.9604 36.1222 26.078 34.9673C26.5527 32.9104 29.1422 32.7666 32.4798 32.7522C33.3973 32.7915 34.3166 32.753 35.2275 32.6371C38.1687 32.0195 40.8215 30.4426 42.7691 28.1541C44.7169 25.8656 45.8493 22.9951 45.9885 19.9935C46.2042 14.8583 43.3989 9.37795 38.4933 5.32162ZM9.82157 38.9374C9.46192 39.2682 9.11658 39.5847 8.78572 39.8724C4.87269 43.3389 2.02422 44.691 1.49193 44.4178C1.18983 43.8567 2.52774 41.0375 5.98042 37.1538C6.25377 36.8229 6.57026 36.4777 6.90114 36.1325C7.28957 35.7153 7.70677 35.2838 8.15274 34.8379C9.04468 33.946 9.87907 33.1693 10.6847 32.4645L10.7034 32.4487C11.3439 33.5951 12.2902 34.5412 13.4368 35.1817L13.4267 35.1932C12.7218 35.9987 11.9306 36.8474 11.053 37.7392C10.6416 38.1607 10.2243 38.5634 9.82157 38.9374ZM17.2449 29.8466C16.448 31.3501 15.491 32.7632 14.3906 34.0611C13.2775 33.5121 12.3758 32.6125 11.8241 31.5008C13.0788 30.4483 14.4315 29.5187 15.8638 28.7246C15.9859 28.9437 16.1412 29.1427 16.3241 29.3144C16.5911 29.5532 16.9045 29.7344 17.2449 29.8466ZM16.9427 27.3006C16.9571 27.128 16.9859 26.9554 17.0146 26.7827C17.1776 25.4353 17.7197 24.1618 18.5778 23.1101C19.4361 22.0585 20.5752 21.272 21.8627 20.8421C22.8972 20.51 23.9712 20.3165 25.0565 20.2668C24.5806 20.816 24.2449 21.4725 24.0782 22.1798C23.9602 22.7472 23.9119 23.3269 23.9344 23.9059C23.9419 24.2469 23.9275 24.588 23.8913 24.9272C23.7734 25.9863 23.2638 26.9629 22.4626 27.6655C21.6615 28.3681 20.6265 28.7459 19.561 28.7246C19.4172 28.7246 19.2733 28.7246 19.1294 28.7102C18.8417 28.6958 18.5971 28.6527 18.482 28.6383C18.2345 28.6008 17.9894 28.5479 17.7483 28.4801C17.5829 28.45 17.4287 28.3754 17.3024 28.2644L17.2161 28.1781C17.0385 27.9198 16.9432 27.614 16.9427 27.3006ZM34.983 31.2131C34.1525 31.3113 33.3155 31.345 32.4798 31.3138C29.5162 31.3138 25.445 31.2994 24.6825 34.6509C24.4763 36.1097 24.7705 37.5952 25.5168 38.8655C26.0834 39.8245 26.3443 40.9334 26.2649 42.0443C26.1792 42.706 25.862 43.3158 25.3696 43.766C24.8773 44.2162 24.2415 44.4777 23.5747 44.5041C21.0841 44.6074 18.6069 44.0883 16.3673 42.9937C14.4638 42.1293 12.6558 41.0687 10.9724 39.8292C11.3609 39.4408 11.7205 39.0956 12.0658 38.7504C14.7143 36.2416 16.948 33.3286 18.6835 30.1199C18.9411 30.1511 19.2007 30.1655 19.4603 30.1631H19.5897C21.0072 30.1838 22.3814 29.6747 23.4431 28.7355C24.5048 27.7964 25.1776 26.4946 25.3299 25.0854C25.3657 24.6982 25.3802 24.3092 25.3731 23.9203C25.3543 23.4434 25.3881 22.9658 25.4737 22.4963C25.6895 21.5901 26.5671 20.4393 27.5598 20.4393C27.6466 20.4418 27.7333 20.4514 27.8186 20.4681C28.0055 20.5018 28.1981 20.4601 28.3544 20.3524C28.5108 20.2446 28.6181 20.0793 28.6531 19.8928C28.6643 19.8457 28.6691 19.7973 28.6674 19.7489C28.6663 19.585 28.6084 19.4266 28.5034 19.3007C28.3985 19.1748 28.2531 19.0891 28.092 19.0585C25.8672 18.6347 23.5715 18.7781 21.4168 19.4756C19.7717 20.0287 18.3296 21.0612 17.2759 22.4402C16.2223 23.8192 15.6053 25.4819 15.5041 27.2143C15.5029 27.2484 15.5078 27.2825 15.5185 27.315C12.416 29.0546 9.58935 31.2458 7.13132 33.8166C6.72851 34.2194 6.34009 34.6222 5.96604 35.0249C4.06101 32.7772 2.69901 30.1212 1.98551 27.2627C1.27202 24.4041 1.2262 21.4197 1.85159 18.5406C2.59263 15.3758 4.01188 12.4095 6.01133 9.84664C8.01079 7.28369 10.5427 5.18526 13.4325 3.69621C16.4867 2.1858 19.8509 1.40767 23.2582 1.42351C28.4648 1.38842 33.5228 3.15721 37.5725 6.4292C42.133 10.1979 44.7512 15.2467 44.5499 19.9359C44.4352 22.6113 43.4325 25.1722 41.7 27.2144C39.9676 29.2565 37.6042 30.6635 34.983 31.2131ZM28.7394 4.28596C27.8858 4.28596 27.0514 4.53904 26.3416 5.01321C25.6318 5.48737 25.0787 6.16132 24.7521 6.94983C24.4254 7.73834 24.3399 8.606 24.5065 9.44303C24.673 10.2801 25.084 11.049 25.6876 11.6526C26.2912 12.256 27.0602 12.667 27.8974 12.8336C28.7346 13 29.6024 12.9146 30.391 12.588C31.1796 12.2614 31.8537 11.7083 32.3279 10.9986C32.8021 10.289 33.0552 9.4547 33.0552 8.60123C33.0518 7.45778 32.596 6.36217 31.7874 5.55364C30.9788 4.74511 29.883 4.28937 28.7394 4.28596ZM28.7394 11.478C28.1704 11.478 27.614 11.3093 27.1409 10.9932C26.6677 10.6771 26.2989 10.2278 26.0812 9.70208C25.8634 9.17649 25.8064 8.598 25.9175 8.03997C26.0285 7.48192 26.3025 6.96931 26.7048 6.56698C27.1073 6.16465 27.6199 5.89066 28.178 5.77965C28.7362 5.66865 29.3147 5.72562 29.8404 5.94336C30.3662 6.1611 30.8155 6.52983 31.1317 7.00292C31.4479 7.47601 31.6166 8.03222 31.6166 8.60123C31.6143 9.36347 31.3105 10.0939 30.7714 10.6329C30.2323 11.172 29.5018 11.4757 28.7394 11.478ZM15.7919 5.72438C14.9382 5.72438 14.1038 5.97746 13.3941 6.45163C12.6843 6.92579 12.1311 7.59974 11.8045 8.38824C11.4778 9.17674 11.3924 10.0444 11.5589 10.8815C11.7254 11.7186 12.1365 12.4875 12.74 13.0909C13.3436 13.6945 14.1126 14.1055 14.9498 14.2719C15.787 14.4385 16.6548 14.353 17.4434 14.0264C18.2321 13.6997 18.9061 13.1467 19.3803 12.437C19.8546 11.7274 20.1077 10.8931 20.1077 10.0396C20.1043 8.89623 19.6484 7.80058 18.8398 6.99205C18.0312 6.18353 16.9354 5.72779 15.7919 5.72438ZM15.7919 12.9165C15.2227 12.9165 14.6665 12.7477 14.1933 12.4316C13.7202 12.1155 13.3514 11.6662 13.1336 11.1405C12.9158 10.6148 12.8588 10.0364 12.9698 9.47838C13.0808 8.92034 13.3549 8.40773 13.7573 8.0054C14.1597 7.60306 14.6724 7.32907 15.2305 7.21806C15.7886 7.10707 16.3671 7.16403 16.8929 7.38177C17.4186 7.59952 17.868 7.96825 18.1841 8.44134C18.5003 8.91446 18.6691 9.47063 18.6691 10.0396C18.6668 10.8019 18.3629 11.5323 17.8238 12.0713C17.2847 12.6104 16.5542 12.9142 15.7919 12.9165ZM8.59874 15.7932C7.74512 15.7932 6.91069 16.0463 6.20095 16.5206C5.49122 16.9947 4.93804 17.6687 4.61138 18.4572C4.28472 19.2456 4.19925 20.1133 4.36578 20.9504C4.53231 21.7875 4.94336 22.5564 5.54694 23.1599C6.15052 23.7633 6.91954 24.1744 7.75673 24.3408C8.59397 24.5074 9.46166 24.4219 10.2503 24.0953C11.0389 23.7687 11.713 23.2156 12.1872 22.5059C12.6615 21.7963 12.9146 20.962 12.9146 20.1086C12.9111 18.9651 12.4553 17.8695 11.6467 17.061C10.8381 16.2524 9.74226 15.7967 8.59874 15.7932ZM8.59874 22.9853C8.02965 22.9853 7.47336 22.8166 7.00021 22.5006C6.52705 22.1844 6.15827 21.7351 5.94049 21.2094C5.72272 20.6837 5.66574 20.1053 5.77676 19.5473C5.88778 18.9892 6.16181 18.4767 6.5642 18.0743C6.96659 17.672 7.47927 17.398 8.03739 17.287C8.5955 17.176 9.17408 17.233 9.69975 17.4507C10.2255 17.6684 10.6749 18.0372 10.9911 18.5102C11.3072 18.9833 11.4759 19.5395 11.4759 20.1086C11.4736 20.8708 11.1698 21.6013 10.6307 22.1402C10.0916 22.6793 9.36114 22.983 8.59874 22.9853ZM37.3711 14.3549C36.5175 14.3549 35.6831 14.608 34.9733 15.0821C34.2636 15.5563 33.7105 16.2302 33.3838 17.0187C33.0571 17.8073 32.9717 18.6749 33.1382 19.512C33.3047 20.349 33.7157 21.1179 34.3194 21.7215C34.9229 22.325 35.692 22.7359 36.5292 22.9025C37.3664 23.0689 38.2341 22.9835 39.0227 22.6569C39.8113 22.3303 40.4854 21.7772 40.9596 21.0676C41.4339 20.3579 41.6869 19.5236 41.6869 18.6701C41.6835 17.5267 41.2277 16.431 40.4191 15.6225C39.6105 14.814 38.5147 14.3583 37.3711 14.3549ZM37.3711 21.5469C36.802 21.5469 36.2457 21.3782 35.7726 21.0621C35.2994 20.746 34.9307 20.2967 34.7129 19.7711C34.4951 19.2454 34.4381 18.6669 34.5491 18.1088C34.6602 17.5508 34.9342 17.0382 35.3366 16.6359C35.739 16.2336 36.2516 15.9595 36.8098 15.8485C37.3679 15.7375 37.9465 15.7945 38.4721 16.0123C38.9979 16.23 39.4473 16.5988 39.7635 17.0718C40.0796 17.5449 40.2483 18.1012 40.2483 18.6701C40.246 19.4324 39.9422 20.1628 39.4031 20.7018C38.864 21.2408 38.1335 21.5447 37.3711 21.5469Z" fill="#EDA288" fill-opacity="0.5"/>
</svg>
