<svg width="46" height="44" viewBox="0 0 46 44" fill="none" xmlns="http://www.w3.org/2000/svg">
<path fill-rule="evenodd" clip-rule="evenodd" d="M34.175 33.0759C35.0645 33.0759 35.8731 33.4383 36.4561 34.0203C36.7559 34.3192 36.9935 34.6743 37.1556 35.065C37.3176 35.4558 37.4008 35.8746 37.4004 36.2976C37.4004 37.1837 37.0383 37.99 36.4561 38.5721C36.1571 38.8719 35.8016 39.1097 35.4101 39.2718C35.0186 39.4339 34.5988 39.5171 34.175 39.5165C33.2864 39.5165 32.4805 39.156 31.8956 38.5721C31.3108 37.99 30.9487 37.1837 30.9487 36.2976C30.9487 35.4096 31.3099 34.6042 31.8947 34.0212C32.4814 33.4356 33.2864 33.0759 34.175 33.0759ZM20.7469 40.6484H2.831C2.05923 40.6484 1.34587 40.3282 0.831959 39.8152C0.321643 39.3058 0 38.6008 0 37.8223V2.82613C0 2.05301 0.318049 1.34714 0.830162 0.834118L0.835553 0.828736C1.35216 0.316606 2.05744 0 2.831 0H37.2935C38.068 0 38.7741 0.322884 39.2862 0.834118C39.8028 1.34535 40.1236 2.05749 40.1236 2.82613V27.8882C39.2494 27.5824 38.3573 27.3375 37.4543 27.1582V2.82613C37.4543 2.78846 37.4337 2.7481 37.4004 2.71582C37.3735 2.68353 37.3348 2.66559 37.2935 2.66559H2.831C2.78518 2.66559 2.74475 2.68263 2.71869 2.70864L2.7133 2.71402C2.68724 2.74003 2.67017 2.78039 2.67017 2.82613V37.8223C2.67017 37.8609 2.68994 37.9003 2.72049 37.9308C2.75193 37.9622 2.79236 37.9828 2.831 37.9828H18.3058C18.4235 38.1963 18.5654 38.4017 18.7316 38.5963C19.357 39.3264 20.0308 40.0116 20.7469 40.6484ZM13.0032 10.1682H32.3494C32.4617 10.1682 32.5551 10.2677 32.5551 10.3753V12.936C32.5551 13.0436 32.4554 13.1423 32.3494 13.1423H13.0032C12.8981 13.1423 12.7974 13.0499 12.7974 12.936V10.3753C12.7974 10.2614 12.8909 10.1682 13.0032 10.1682ZM13.0032 27.551H28.7709C28.2156 27.7151 27.6604 27.908 27.106 28.1295C26.0153 28.5663 24.3272 29.4399 22.692 30.5251H13.0032C12.8963 30.5251 12.7974 30.4318 12.7974 30.3188V27.7564C12.7979 27.7021 12.8197 27.6501 12.8582 27.6117C12.8967 27.5733 12.9488 27.5515 13.0032 27.551ZM9.28002 27.3304C10.2243 27.3304 10.9907 28.0954 10.9907 29.0381C10.9907 29.9816 10.2243 30.7458 9.28002 30.7458C8.33576 30.7458 7.56939 29.9816 7.56939 29.0381C7.56939 28.0954 8.33576 27.3304 9.28002 27.3304ZM13.0032 18.8439H32.3494C32.4617 18.8439 32.5551 18.9408 32.5551 19.0502V21.6108C32.5551 21.7202 32.4581 21.818 32.3494 21.818H13.0032C12.8954 21.818 12.7974 21.7247 12.7974 21.6108V19.0502C12.7974 18.9363 12.8909 18.8439 13.0032 18.8439ZM9.28002 18.6232C10.2243 18.6232 10.9907 19.3874 10.9907 20.33C10.9907 21.2736 10.2243 22.0386 9.28002 22.0386C8.33576 22.0386 7.56939 21.2736 7.56939 20.33C7.56939 19.3874 8.33576 18.6232 9.28002 18.6232ZM9.28002 9.94753C10.2243 9.94753 10.9907 10.7126 10.9907 11.6552C10.9907 12.5979 10.2243 13.3629 9.28002 13.3629C8.33576 13.3629 7.56939 12.5979 7.56939 11.6552C7.56939 10.7126 8.33576 9.94753 9.28002 9.94753ZM22.5626 35.7451C25.4071 32.3117 29.0952 29.5627 33.6907 29.4677C38.5675 29.3663 42.624 32.2732 45.8 35.7576C45.9209 35.8909 45.9914 36.0622 45.9993 36.2418C46.0071 36.4215 45.9519 36.5982 45.8431 36.7415C43.1576 40.5229 38.9188 43.097 34.1975 43.1248C29.3378 43.1526 25.4969 40.4834 22.5168 36.755C22.2742 36.45 22.3012 36.0177 22.5626 35.7451ZM24.3954 36.2805C27.0602 39.3748 30.0377 41.3426 34.1912 41.3193C38.1776 41.296 41.5683 39.4403 43.9608 36.3335C41.1487 33.4015 37.917 31.1852 33.7213 31.2713C29.7987 31.3539 26.9147 33.4203 24.3954 36.2805ZM33.2658 33.6984C33.9576 33.6984 34.5164 34.258 34.5164 34.9477C34.5164 35.6375 33.9576 36.1971 33.2658 36.1971C32.5758 36.1971 32.0151 35.6375 32.0151 34.9477C32.0151 34.258 32.5758 33.6984 33.2658 33.6984Z" fill="#EDA288" fill-opacity="0.5"/>
</svg>
