<svg width="46" height="55" viewBox="0 0 46 55" fill="none" xmlns="http://www.w3.org/2000/svg">
<path d="M45 54.22H1C0.734784 54.22 0.48043 54.1146 0.292893 53.9271C0.105357 53.7396 0 53.4852 0 53.22V1C0 0.734784 0.105357 0.48043 0.292893 0.292893C0.48043 0.105357 0.734784 0 1 0H33.3C33.4313 0.00316389 33.5607 0.0321698 33.6808 0.0853605C33.8009 0.138551 33.9094 0.214885 34 0.31L45.7 12.43C45.8836 12.6097 45.9911 12.8532 46 13.11V53.21C46.0013 53.3422 45.9764 53.4733 45.9268 53.5958C45.8771 53.7182 45.8037 53.8297 45.7107 53.9236C45.6177 54.0175 45.507 54.0921 45.385 54.1429C45.263 54.1938 45.1322 54.22 45 54.22ZM2 52.22H44V13.52L32.88 2H2V52.22Z" fill="#EDA288"/>
<path d="M33.2998 14.11C33.0346 14.11 32.7802 14.0046 32.5927 13.8171C32.4052 13.6296 32.2998 13.3752 32.2998 13.11V1C32.2998 0.734784 32.4052 0.48043 32.5927 0.292893C32.7802 0.105357 33.0346 0 33.2998 0C33.565 0 33.8194 0.105357 34.0069 0.292893C34.1944 0.48043 34.2998 0.734784 34.2998 1V13.11C34.2998 13.3752 34.1944 13.6296 34.0069 13.8171C33.8194 14.0046 33.565 14.11 33.2998 14.11Z" fill="#EDA288"/>
<path d="M39.0002 14.1101H33.3002C33.0349 14.1101 32.7806 14.0047 32.593 13.8172C32.4055 13.6297 32.3002 13.3753 32.3002 13.1101C32.3002 12.8449 32.4055 12.5905 32.593 12.403C32.7806 12.2154 33.0349 12.1101 33.3002 12.1101H39.0002C39.2654 12.1101 39.5197 12.2154 39.7073 12.403C39.8948 12.5905 40.0002 12.8449 40.0002 13.1101C40.0002 13.3753 39.8948 13.6297 39.7073 13.8172C39.5197 14.0047 39.2654 14.1101 39.0002 14.1101ZM20.0902 20.9701H8.18016C7.91494 20.9701 7.66059 20.8647 7.47305 20.6772C7.28551 20.4897 7.18016 20.2353 7.18016 19.9701V8.11011C7.18016 7.84489 7.28551 7.59054 7.47305 7.403C7.66059 7.21546 7.91494 7.11011 8.18016 7.11011H20.0902C20.3554 7.11011 20.6097 7.21546 20.7973 7.403C20.9848 7.59054 21.0902 7.84489 21.0902 8.11011V19.9701C21.0902 20.2353 20.9848 20.4897 20.7973 20.6772C20.6097 20.8647 20.3554 20.9701 20.0902 20.9701ZM9.18016 18.9701H19.0902V9.11011H9.18016V18.9701ZM37.8402 29.1101H8.16016C7.89494 29.1101 7.64059 29.0047 7.45305 28.8172C7.26551 28.6297 7.16016 28.3753 7.16016 28.1101C7.16016 27.8449 7.26551 27.5905 7.45305 27.403C7.64059 27.2154 7.89494 27.1101 8.16016 27.1101H37.8402C38.1054 27.1101 38.3597 27.2154 38.5473 27.403C38.7348 27.5905 38.8402 27.8449 38.8402 28.1101C38.8402 28.3753 38.7348 28.6297 38.5473 28.8172C38.3597 29.0047 38.1054 29.1101 37.8402 29.1101ZM37.8402 36.9601H8.16016C7.89494 36.9601 7.64059 36.8547 7.45305 36.6672C7.26551 36.4797 7.16016 36.2253 7.16016 35.9601C7.16016 35.6949 7.26551 35.4405 7.45305 35.253C7.64059 35.0654 7.89494 34.9601 8.16016 34.9601H37.8402C38.1054 34.9601 38.3597 35.0654 38.5473 35.253C38.7348 35.4405 38.8402 35.6949 38.8402 35.9601C38.8402 36.2253 38.7348 36.4797 38.5473 36.6672C38.3597 36.8547 38.1054 36.9601 37.8402 36.9601ZM37.8402 44.8201H8.16016C7.89494 44.8201 7.64059 44.7147 7.45305 44.5272C7.26551 44.3397 7.16016 44.0853 7.16016 43.8201C7.16016 43.5549 7.26551 43.3005 7.45305 43.113C7.64059 42.9254 7.89494 42.8201 8.16016 42.8201H37.8402C38.1054 42.8201 38.3597 42.9254 38.5473 43.113C38.7348 43.3005 38.8402 43.5549 38.8402 43.8201C38.8402 44.0853 38.7348 44.3397 38.5473 44.5272C38.3597 44.7147 38.1054 44.8201 37.8402 44.8201Z" fill="#EDA288"/>
</svg>
