<?xml version="1.0" encoding="UTF-8"?>
<svg version="1.1" xmlns="http://www.w3.org/2000/svg" width="1200" height="1200">
<path d="M0 0 C396 0 792 0 1200 0 C1200 396 1200 792 1200 1200 C804 1200 408 1200 0 1200 C0 804 0 408 0 0 Z " fill="#FEFEFE" transform="translate(0,0)"/>
<path d="M0 0 C0.33 0.33 0.66 0.66 1 1 C0.5553811 6.53845427 -0.60282886 11.52014145 -2.40625 16.77734375 C-2.64644363 17.49668091 -2.88663727 18.21601807 -3.1341095 18.95715332 C-3.91468801 21.286738 -4.70663894 23.61224029 -5.5 25.9375 C-6.05256001 27.57096628 -6.6048851 29.20451204 -7.15698242 30.83813477 C-8.51696066 34.85161982 -9.88874323 38.86093227 -11.26702881 42.86816406 C-11.91535783 44.7538195 -12.56068773 46.64050553 -13.20556641 48.52734375 C-26.93221965 88.49149618 -44.28534412 127.15299883 -63 165 C-63.79519043 166.62252686 -63.79519043 166.62252686 -64.60644531 168.27783203 C-77.9385505 195.35579739 -94.27726224 214.66478319 -123.48602295 225.26513672 C-127.22533216 226.50122119 -130.97887694 227.68357416 -134.7421875 228.84375 C-136.16442594 229.2893425 -137.58642645 229.73569499 -139.00820923 230.18273926 C-142.8294631 231.38179689 -146.65402781 232.56994383 -150.4793396 233.75598145 C-154.55267695 235.02103494 -158.62278033 236.29641782 -162.69335938 237.5703125 C-172.79117101 240.72774005 -182.89493872 243.86586457 -193 247 C-194.55603106 247.48274485 -196.11206135 247.96549219 -197.66809082 248.44824219 C-210.14674381 252.31913628 -222.62687066 256.18527754 -235.10964012 260.0428772 C-256.93035906 266.78681002 -278.72175766 273.62022693 -300.5 280.5 C-325.2774429 288.32708603 -350.07789594 296.07497134 -374.90365601 303.74740601 C-397.62240934 310.76891748 -420.3197874 317.85499397 -443 325 C-469.97934904 333.49883094 -496.98301878 341.91646006 -524.00952148 350.26416016 C-526.90221398 351.15777085 -529.79486783 352.05150654 -532.6875 352.9453125 C-533.73937594 353.27027143 -533.73937594 353.27027143 -534.81250191 353.6017952 C-544.30160176 356.53417968 -553.78010072 359.49824627 -563.25 362.4921875 C-565.38008651 363.16353978 -567.51021194 363.83476862 -569.64038086 364.50585938 C-573.4592527 365.7090481 -577.27460515 366.92257921 -581.08813477 368.14257812 C-582.74741814 368.66581021 -584.40683276 369.18862633 -586.06640625 369.7109375 C-586.79404175 369.9472287 -587.52167725 370.1835199 -588.2713623 370.42697144 C-592.28348608 371.67771909 -595.79667072 372.42856863 -600 372 C-602.99810946 369.00189054 -603.48770676 365.18443342 -604.5625 361.1875 C-606.97321952 352.49136623 -609.55375631 343.8617777 -612.25 335.25 C-615.54561571 324.70095297 -618.79885754 314.14059203 -622 303.5625 C-622.31340836 302.52730225 -622.31340836 302.52730225 -622.63314819 301.47119141 C-625.25334222 292.81340055 -627.85477792 284.15013422 -630.44604492 275.48364258 C-633.8015776 264.26208972 -637.20532925 253.05795618 -640.6875 241.875 C-641.42973457 239.4856917 -642.1719234 237.0963692 -642.9140625 234.70703125 C-643.93079069 231.43417482 -644.94917196 228.16192215 -645.97558594 224.89208984 C-646.84555085 222.1178684 -647.70528988 219.34068387 -648.5625 216.5625 C-648.81410889 215.77020996 -649.06571777 214.97791992 -649.32495117 214.16162109 C-650.59284049 210.01556377 -651.46982094 206.38720113 -651 202 C-648.32717325 199.32717325 -645.7829286 198.78768237 -642.1875 197.625 C-640.96417969 197.22539062 -639.74085938 196.82578125 -638.48046875 196.4140625 C-635.14316608 195.35236775 -631.79727931 194.32018951 -628.44921875 193.29296875 C-622.30578488 191.40799618 -616.17159312 189.49434969 -610.0390625 187.57421875 C-609.03943985 187.26133911 -608.0398172 186.94845947 -607.00990295 186.62609863 C-602.84934871 185.32368354 -598.68889111 184.02096216 -594.52880859 182.71704102 C-582.30054476 178.88492377 -570.06396953 175.08441737 -557.7986145 171.3724823 C-550.48396392 169.15739628 -543.19335323 166.87082573 -535.91015625 164.5546875 C-531.83681009 163.26095108 -527.75793226 161.98516246 -523.67822266 160.71166992 C-516.21637497 158.38110101 -508.75653696 156.04417285 -501.29754066 153.70449638 C-498.41995301 152.80191877 -495.54227618 151.8996256 -492.66460705 150.99730778 C-487.35209886 149.33152011 -482.03962745 147.66561535 -476.72729492 145.99926758 C-472.9871521 144.82608897 -469.24690104 143.653256 -465.50658226 142.4806385 C-464.10220635 142.0402881 -462.69786864 141.59981585 -461.29357338 141.1592083 C-453.44060154 138.69534365 -445.58291048 136.24785844 -437.71447754 133.83374023 C-434.20181095 132.75483963 -430.6942454 131.66049504 -427.1875 130.5625 C-425.41439453 130.00755859 -425.41439453 130.00755859 -423.60546875 129.44140625 C-422.91686768 129.22581055 -422.2282666 129.01021484 -421.51879883 128.78808594 C-418.33314604 127.79135363 -415.14702057 126.79613731 -411.9609375 125.80078125 C-406.20875907 124.00368598 -400.45732401 122.20422776 -394.70631409 120.40339661 C-390.65390614 119.13460257 -386.60125512 117.86658589 -382.54858398 116.59863281 C-380.48696321 115.95343595 -378.42543854 115.30793189 -376.36401367 114.66210938 C-364.1937715 110.84962742 -352.01474324 107.07011234 -339.80809021 103.37564087 C-332.49032465 101.15937003 -325.19652117 98.87183561 -317.91015625 96.5546875 C-313.83681009 95.26095108 -309.75793226 93.98516246 -305.67822266 92.71166992 C-298.21637497 90.38110101 -290.75653696 88.04417285 -283.29754066 85.70449638 C-280.41995301 84.80191877 -277.54227618 83.8996256 -274.66460705 82.99730778 C-269.35209886 81.33152011 -264.03962745 79.66561535 -258.72729492 77.99926758 C-254.9871521 76.82608897 -251.24690104 75.653256 -247.50658226 74.4806385 C-246.10220635 74.0402881 -244.69786864 73.59981585 -243.29357338 73.1592083 C-235.44060154 70.69534365 -227.58291048 68.24785844 -219.71447754 65.83374023 C-216.20181095 64.75483963 -212.6942454 63.66049504 -209.1875 62.5625 C-208.00542969 62.19253906 -206.82335937 61.82257813 -205.60546875 61.44140625 C-204.58199341 61.12097351 -204.58199341 61.12097351 -203.5378418 60.79406738 C-200.24425014 59.76353281 -196.95024594 58.73431949 -193.65625 57.70507812 C-187.02494051 55.63292894 -180.39385709 53.56005758 -173.76289368 51.48680115 C-168.95058257 49.98217982 -164.13817749 48.47785913 -159.32576466 46.97356319 C-155.69898157 45.83986649 -152.07223246 44.70606132 -148.44555664 43.57202148 C-144.88046322 42.45724365 -141.31527928 41.34275573 -137.75003624 40.2284565 C-136.41265402 39.81041085 -135.0753026 39.39226665 -133.73798561 38.97401237 C-126.07679414 36.57800081 -118.41128108 34.19698842 -110.73754883 31.84143066 C-107.21735858 30.75944229 -103.70197427 29.66291502 -100.1875 28.5625 C-99.00542969 28.19253906 -97.82335937 27.82257813 -96.60546875 27.44140625 C-95.58158554 27.12083755 -95.58158554 27.12083755 -94.53701782 26.79379272 C-91.92015664 25.97501828 -89.3030097 25.15716051 -86.68581295 24.33945942 C-79.32626465 22.04008158 -71.96739606 19.73854317 -64.60899353 17.4355011 C-59.7444857 15.91303061 -54.87970092 14.39144571 -50.01489162 12.86993885 C-46.3407608 11.72078771 -42.66673322 10.57130849 -38.99291992 9.42114258 C-35.38910659 8.29290788 -31.78502998 7.1655179 -28.18077278 6.03870201 C-26.82162162 5.61362343 -25.46256373 5.18824649 -24.10360527 4.76255226 C-22.20791236 4.16877824 -20.31184862 3.57618853 -18.41577148 2.98364258 C-17.34262192 2.64786697 -16.26947235 2.31209137 -15.1638031 1.96614075 C-14.11974808 1.6473143 -13.07569305 1.32848785 -12 1 C-10.15795738 0.43396309 -10.15795738 0.43396309 -8.27870178 -0.14350891 C-4.95899995 -1.01071039 -3.22605334 -1.04372314 0 0 Z " fill="#FFBB1C" transform="translate(922,253)"/>
<path d="M0 0 C0.33 0.33 0.66 0.66 1 1 C0.73211444 9.9592836 -2.44481602 18.16713946 -5.3125 26.5625 C-5.85120955 28.15785939 -6.38986433 29.75323727 -6.9284668 31.34863281 C-13.88466555 51.83948035 -21.05185086 72.44870927 -30.1328125 92.10791016 C-31.10743677 94.234413 -32.05477719 96.3719885 -33 98.51171875 C-39.04093936 112.14807948 -45.43192509 125.61033058 -52 139 C-52.47228027 139.97275879 -52.94456055 140.94551758 -53.43115234 141.94775391 C-64.44188768 164.49795601 -78.15633065 181.1999653 -102.50061035 189.89292908 C-105.28046598 190.80662969 -108.06889897 191.68642288 -110.86328125 192.5546875 C-111.93629486 192.89305634 -113.00930847 193.23142517 -114.11483765 193.58004761 C-116.47803925 194.32508109 -118.84192214 195.06795614 -121.20639038 195.80895996 C-125.14309168 197.044925 -129.0765452 198.29075331 -133.0090332 199.54003906 C-142.045143 202.40975758 -151.08468658 205.26855479 -160.125 208.125 C-160.94290134 208.38349102 -161.76080269 208.64198204 -162.60348892 208.90830612 C-188.71457004 217.15994847 -214.85316646 225.31831617 -241.01733398 233.39990234 C-267.88089845 241.69815103 -294.70384865 250.12226192 -321.5144043 258.59008789 C-322.2606969 258.82575627 -323.0069895 259.06142466 -323.77589703 259.3042345 C-327.2540361 260.40261714 -330.73201866 261.50148764 -334.20957947 262.60169983 C-336.64229221 263.37050943 -339.07614158 264.13573478 -341.5112915 264.89678955 C-343.88948726 265.64883014 -346.26123411 266.4215009 -348.62689209 267.21209717 C-349.77595032 267.58860413 -350.92500854 267.96511108 -352.10888672 268.35302734 C-353.63218094 268.86438736 -353.63218094 268.86438736 -355.18624878 269.38607788 C-358.2243561 270.04895144 -360.057919 269.96213967 -363 269 C-364.24902344 267.08398438 -364.24902344 267.08398438 -365.109375 264.59375 C-365.43099609 263.68496094 -365.75261719 262.77617188 -366.08398438 261.83984375 C-366.53741211 260.43412109 -366.53741211 260.43412109 -367 259 C-367.27650391 258.15566406 -367.55300781 257.31132813 -367.83789062 256.44140625 C-368.6733763 253.80281645 -369.46634328 251.15442672 -370.25 248.5 C-370.86933983 246.43476028 -371.48914767 244.36966086 -372.109375 242.3046875 C-372.42455078 241.25120117 -372.73972656 240.19771484 -373.06445312 239.11230469 C-374.51835222 234.27558609 -376.00948142 229.45053407 -377.5 224.625 C-380.19708319 215.87532051 -382.88270689 207.12217534 -385.5625 198.3671875 C-385.88125092 197.32595734 -386.20000183 196.28472717 -386.52841187 195.21194458 C-388.18025824 189.81513876 -389.83071078 184.41791168 -391.47900391 179.02001953 C-395.55267959 165.68439969 -395.55267959 165.68439969 -399.7109375 152.375 C-400.08669922 151.17939453 -400.46246094 149.98378906 -400.84960938 148.75195312 C-401.50270611 146.68070349 -402.1621797 144.61144603 -402.83007812 142.54492188 C-406.34575634 131.36748976 -406.34575634 131.36748976 -406 126 C-403.24078385 122.20312992 -397.30709561 121.41462949 -392.9375 120.1875 C-391.1285406 119.66271712 -389.31995525 119.13664339 -387.51171875 118.609375 C-386.59310059 118.34318359 -385.67448242 118.07699219 -384.72802734 117.80273438 C-380.54982051 116.57327813 -376.39944285 115.26027843 -372.25 113.9375 C-366.72130219 112.17723043 -361.18834108 110.43150314 -355.6496582 108.70288086 C-348.29878503 106.40716885 -340.95048186 104.10334968 -333.60319328 101.79619217 C-329.29247711 100.44276022 -324.98141696 99.09042409 -320.67043209 97.73784828 C-316.94069979 96.56757581 -313.21107696 95.39695675 -309.48168945 94.22558594 C-293.60976949 89.2406409 -277.73435417 84.27385077 -261.80859375 79.46289062 C-255.49115371 77.5504709 -249.20019555 75.55500804 -242.91015625 73.5546875 C-238.82953444 72.25859651 -234.7432875 70.98075781 -230.65625 69.70507812 C-223.30319647 67.40858044 -215.95269094 65.10404337 -208.60319328 62.79619217 C-204.29247711 61.44276022 -199.98141696 60.09042409 -195.67043209 58.73784828 C-191.94069979 57.56757581 -188.21107696 56.39695675 -184.48168945 55.22558594 C-168.60976949 50.2406409 -152.73435417 45.27385077 -136.80859375 40.46289062 C-130.49115371 38.5504709 -124.20019555 36.55500804 -117.91015625 34.5546875 C-113.8980289 33.2805782 -109.88075229 32.02336654 -105.86254883 30.76855469 C-104.424285 30.31930421 -102.98602739 29.8700338 -101.54777527 29.42074585 C-100.80013601 29.18720776 -100.05249676 28.95366966 -99.28220177 28.71305466 C-95.52074121 27.53781809 -91.75963917 26.36143561 -87.99853516 25.18505859 C-80.3031362 22.77824197 -72.607576 20.37194145 -64.91190529 17.96599388 C-60.29290156 16.5219001 -55.67396586 15.07758948 -51.05517578 13.6328125 C-46.53704713 12.21953327 -42.01874176 10.80682032 -37.50031662 9.39448929 C-35.79479092 8.86128343 -34.08932736 8.32787879 -32.38393021 7.79426193 C-27.87879665 6.38467847 -23.37259308 4.97867107 -18.86411285 3.57982635 C-17.17877511 3.05560743 -15.49502105 2.52630369 -13.8114624 1.99639893 C-12.4862558 1.58560089 -12.4862558 1.58560089 -11.13427734 1.16650391 C-10.0552565 0.82880478 -10.0552565 0.82880478 -8.95443726 0.48428345 C-5.86748195 -0.28062285 -3.16284764 -0.26917852 0 0 Z " fill="#F34A70" transform="translate(767,534)"/>
<path d="M0 0 C0.33 0.33 0.66 0.66 1 1 C0.55294312 6.46056009 -0.55148833 11.40709083 -2.30078125 16.6015625 C-2.53286285 17.30759109 -2.76494446 18.01361969 -3.00405884 18.74104309 C-3.76398253 21.0390106 -4.5368276 23.33230379 -5.3125 25.625 C-5.57910431 26.41866974 -5.84570862 27.21233948 -6.12039185 28.03005981 C-16.42234404 58.62430445 -29.15008826 88.27925305 -43.36505127 117.25579834 C-44.21403496 118.98907416 -45.05328286 120.72710846 -45.89208984 122.46533203 C-55.72416935 142.19158838 -69.61740207 155.41943334 -90.51293945 162.62646484 C-95.10420668 164.12292295 -99.73571669 165.4740401 -104.375 166.8125 C-105.95222841 167.27923086 -107.52905348 167.74732692 -109.10546875 168.21679688 C-112.0915842 169.1044815 -115.08074572 169.98027953 -118.07324219 170.84619141 C-122.0924831 172.01400405 -126.07465451 173.28867134 -130.04150391 174.6237793 C-132.42436351 175.08151885 -133.77326421 174.97353173 -136 174 C-136.93798828 172.390625 -136.93798828 172.390625 -137.5703125 170.25 C-137.82151855 169.43144531 -138.07272461 168.61289062 -138.33154297 167.76953125 C-138.7243042 166.39861328 -138.7243042 166.39861328 -139.125 165 C-139.41648926 164.03449219 -139.70797852 163.06898438 -140.00830078 162.07421875 C-140.66030181 159.90964274 -141.3048692 157.74281851 -141.94335938 155.57421875 C-143.06119282 151.79300766 -144.20648486 148.02062146 -145.359375 144.25 C-148.71656155 133.25548967 -152.03052437 122.24806129 -155.32421875 111.234375 C-155.69627441 109.99042969 -156.06833008 108.74648438 -156.45166016 107.46484375 C-157.18750377 105.00405333 -157.92286171 102.54311763 -158.65771484 100.08203125 C-160.57718651 93.67296237 -162.52777654 87.27507235 -164.52734375 80.890625 C-164.73541153 80.22536804 -164.94347931 79.56011108 -165.15785217 78.87469482 C-166.15619796 75.68509261 -167.15949552 72.49725467 -168.17016602 69.31152344 C-168.52651123 68.1774707 -168.88285645 67.04341797 -169.25 65.875 C-169.56453125 64.88242187 -169.8790625 63.88984375 -170.203125 62.8671875 C-171.02531415 59.90891868 -171.64081694 57.04993388 -172 54 C-169.98291001 50.723139 -166.87653887 50.13563085 -163.3125 49.125 C-162.14976562 48.78597656 -160.98703125 48.44695313 -159.7890625 48.09765625 C-157.91347656 47.55431641 -157.91347656 47.55431641 -156 47 C-153.39149396 46.20121985 -150.7895048 45.3821745 -148.1875 44.5625 C-146.82689646 44.1364838 -145.4662187 43.71070458 -144.10546875 43.28515625 C-143.42661621 43.07262207 -142.74776367 42.86008789 -142.04833984 42.64111328 C-138.69926642 41.59288124 -135.34960815 40.54652179 -132 39.5 C-130.66666377 39.0833426 -129.33333044 38.66667593 -128 38.25 C-87.99999998 25.74999999 -87.99999998 25.74999999 -86.11430359 25.16072083 C-84.77495756 24.74217459 -83.43561218 24.32362626 -82.0962677 23.90507507 C-78.96743433 22.92730379 -75.83859043 21.94956625 -72.7097168 20.97192383 C-71.57187744 20.61638428 -70.43403809 20.26084473 -69.26171875 19.89453125 C-68.59951828 19.68774246 -67.93731781 19.48095367 -67.25505066 19.26789856 C-62.71414205 17.84950634 -58.17436305 16.42755896 -53.63525391 15.00341797 C-47.61529314 13.11541039 -41.59278839 11.23567095 -35.5690918 9.35961914 C-33.04420384 8.57181209 -30.52012564 7.78140553 -27.99682617 6.98852539 C-24.31893208 5.83336085 -20.63831961 4.68726312 -16.95703125 3.54296875 C-15.82997269 3.18679977 -14.70291412 2.8306308 -13.54170227 2.46366882 C-12.49258163 2.1394545 -11.443461 1.81524017 -10.36254883 1.48120117 C-9.44484207 1.19427902 -8.52713531 0.90735687 -7.58161926 0.61174011 C-4.94093041 -0.01399712 -2.70314884 -0.18820246 0 0 Z " fill="#557BFF" transform="translate(614,785)"/>
</svg>
